<svg
  xmlns="http://www.w3.org/2000/svg"
  width="112"
  height="112"
  viewBox="0 0 112 112"
  fill="none"
>
  <path
    d="M78.853 33.3917C80.5948 35.1335 81.8979 37.0914 82.7622 39.2653C83.6396 41.4262 84.0718 43.6526 84.0587 45.9444C84.0718 48.2362 83.6462 50.4691 82.7818 52.6431C81.9175 54.8171 80.621 56.7684 78.8923 58.4971C76.2075 61.1818 72.9728 62.7796 69.188 63.2903C65.4163 63.8142 61.4154 63.1659 57.1853 61.3455L57.1264 71.816C57.1395 72.2481 57.0085 72.6017 56.7335 72.8768C56.4847 73.1518 56.1507 73.2893 55.7316 73.2893L45.2023 73.2893L45.2612 80.8916C45.2481 81.3238 45.1106 81.6709 44.8487 81.9328C44.5868 82.2209 44.2332 82.365 43.7879 82.365L31.353 82.3453C30.9209 82.3584 30.5738 82.2078 30.3119 81.8935C30.05 81.5792 29.919 81.2518 29.919 80.9113L29.9387 74.2911C29.9517 73.9375 30.0107 73.6167 30.1154 73.3286C30.2333 73.0536 30.4232 72.7851 30.6851 72.5232L50.0348 53.1735C49.0264 50.9079 48.5091 48.5833 48.4829 46.1998C48.4567 43.8163 48.8823 41.5179 49.7598 39.3046C50.6634 37.0914 51.9927 35.1073 53.7476 33.3524C55.4893 31.6106 57.4407 30.301 59.6016 29.4235C61.7755 28.5592 64.0084 28.1336 66.3003 28.1467C68.6052 28.1467 70.8316 28.5788 72.9793 29.4432C75.1402 30.3206 77.0981 31.6368 78.853 33.3917ZM67.3414 44.9033C68.2451 45.8069 69.3386 46.2587 70.622 46.2587C71.9054 46.2587 72.999 45.8069 73.9026 44.9033C74.8193 43.9865 75.2712 42.893 75.2581 41.6227C75.2581 40.3392 74.8063 39.2457 73.9026 38.3421C72.9728 37.4122 71.8727 36.9539 70.6024 36.967C69.3451 36.967 68.2581 37.4253 67.3414 38.3421C66.4378 39.2457 65.9794 40.3327 65.9663 41.603C65.9663 42.8864 66.4247 43.9865 67.3414 44.9033Z"
    fill="#007aff"
  />
</svg>